<svg width="14" height="12" viewBox="0 0 14 12" fill="none" xmlns="http://www.w3.org/2000/svg">
<path fill-rule="evenodd" clip-rule="evenodd" d="M0.736842 4.94118H10.3158V7.05882H0.736842C0.491228 7.05882 0 6.91765 0 6.35294V5.64706C0 5.41176 0.147368 4.94118 0.736842 4.94118Z" fill="#44A5FF"/>
<path fill-rule="evenodd" clip-rule="evenodd" d="M10.3158 7.05882V4.94118L7.00236 1.76696C6.87876 1.64856 6.70573 1.34073 7.00236 1.05657L7.73684 0.352941C7.97629 0.123553 8.23195 0.189233 8.38529 0.28503L13.4475 5.43767C13.8895 5.88753 13.6317 6.37489 13.4475 6.56233L8.38529 11.715C8.23195 11.8108 7.97629 11.8764 7.73684 11.6471L7 10.9412C6.70526 10.6588 6.87719 10.3529 7 10.2353L10.3158 7.05882Z" fill="#44A5FF"/>
<path d="M7.00236 1.05657L6.63158 1.41176L7.00236 1.76696C6.87876 1.64856 6.70573 1.34073 7.00236 1.05657Z" fill="#44A5FF"/>
<path d="M8.10526 0L7.73684 0.352941C7.97629 0.123553 8.23195 0.189233 8.38529 0.28503L8.10526 0Z" fill="#44A5FF"/>
<path d="M0.736842 4.94118H0V5.64706C0 5.41176 0.147368 4.94118 0.736842 4.94118Z" fill="#44A5FF"/>
<path d="M0 6.35294V7.05882H0.736842C0.491228 7.05882 0 6.91765 0 6.35294Z" fill="#44A5FF"/>
<path d="M14 6L13.4475 5.43767C13.8895 5.88753 13.6317 6.37489 13.4475 6.56233L14 6Z" fill="#44A5FF"/>
<path d="M6.63158 10.5882L7 10.9412C6.70526 10.6588 6.87719 10.3529 7 10.2353L6.63158 10.5882Z" fill="#44A5FF"/>
<path d="M7.73684 11.6471L8.10526 12L8.38529 11.715C8.23195 11.8108 7.97629 11.8764 7.73684 11.6471Z" fill="#44A5FF"/>
</svg>
