<svg width="14" height="12" viewBox="0 0 14 12" fill="none" xmlns="http://www.w3.org/2000/svg">
<path fill-rule="evenodd" clip-rule="evenodd" d="M13.2632 4.94118H3.6842V7.05882H13.2632C13.5088 7.05882 14 6.91765 14 6.35294V5.64706C14 5.41176 13.8526 4.94118 13.2632 4.94118Z" fill="#44A5FF"/>
<path fill-rule="evenodd" clip-rule="evenodd" d="M3.6842 7.05882V4.94118L6.99764 1.76696C7.12124 1.64856 7.29427 1.34073 6.99764 1.05657L6.26316 0.352941C6.02371 0.123553 5.76805 0.189233 5.61471 0.28503L0.5525 5.43767C0.1105 5.88753 0.3683 6.37489 0.5525 6.56233L5.61471 11.715C5.76805 11.8108 6.02371 11.8764 6.26316 11.6471L7 10.9412C7.29474 10.6588 7.12281 10.3529 7 10.2353L3.6842 7.05882Z" fill="#44A5FF"/>
<path d="M6.99764 1.05657L7.36842 1.41176L6.99764 1.76696C7.12124 1.64856 7.29427 1.34073 6.99764 1.05657Z" fill="#44A5FF"/>
<path d="M5.89474 0L6.26316 0.352941C6.02371 0.123553 5.76805 0.189233 5.61471 0.28503L5.89474 0Z" fill="#44A5FF"/>
<path d="M13.2632 4.94118H14V5.64706C14 5.41176 13.8526 4.94118 13.2632 4.94118Z" fill="#44A5FF"/>
<path d="M14 6.35294V7.05882H13.2632C13.5088 7.05882 14 6.91765 14 6.35294Z" fill="#44A5FF"/>
<path d="M0 6L0.5525 5.43767C0.1105 5.88753 0.3683 6.37489 0.5525 6.56233L0 6Z" fill="#44A5FF"/>
<path d="M7.36842 10.5882L7 10.9412C7.29474 10.6588 7.12281 10.3529 7 10.2353L7.36842 10.5882Z" fill="#44A5FF"/>
<path d="M6.26316 11.6471L5.89474 12L5.61471 11.715C5.76805 11.8108 6.02371 11.8764 6.26316 11.6471Z" fill="#44A5FF"/>
</svg>
