<svg width="36" height="36" viewBox="0 0 36 36" fill="none" xmlns="http://www.w3.org/2000/svg">
<path fill-rule="evenodd" clip-rule="evenodd" d="M18 36C27.9411 36 36 27.9411 36 18C36 8.05887 27.9411 0 18 0C8.05887 0 0 8.05887 0 18C0 27.9411 8.05887 36 18 36ZM18 33C26.2843 33 33 26.2843 33 18C33 9.71573 26.2843 3 18 3C9.71573 3 3 9.71573 3 18C3 26.2843 9.71573 33 18 33Z" fill="#FFC047"/>
<path fill-rule="evenodd" clip-rule="evenodd" d="M16.0588 19.5L18 21.5893L19.9412 19.5L25.7606 13.6542C25.9776 13.4361 26.542 13.1308 27.063 13.6542L28.3529 14.95C28.7735 15.3725 28.6531 15.8235 28.4774 16.0941L19.0309 25.0253C18.2062 25.8051 17.3127 25.3502 16.9691 25.0253L7.52256 16.0941C7.34693 15.8235 7.22651 15.3725 7.64706 14.95L8.94118 13.65C9.45882 13.13 10.0196 13.4333 10.2353 13.65L16.0588 19.5Z" fill="#FFC047"/>
</svg>
