<svg width="36" height="36" viewBox="0 0 36 36" fill="none" xmlns="http://www.w3.org/2000/svg">
<path fill-rule="evenodd" clip-rule="evenodd" d="M18 36C27.9411 36 36 27.9411 36 18C36 8.05887 27.9411 0 18 0C8.05887 0 0 8.05887 0 18C0 27.9411 8.05887 36 18 36ZM18 33C26.2843 33 33 26.2843 33 18C33 9.71573 26.2843 3 18 3C9.71573 3 3 9.71573 3 18C3 26.2843 9.71573 33 18 33Z" fill="#A4A4A4"/>
<path d="M8.99991 15C6.59991 15 5.99991 17 5.99991 18C5.99991 20.4 7.99991 21 8.99991 21C11.3999 21 11.9999 19 11.9999 18C11.9999 15.6 9.99991 15 8.99991 15Z" fill="#A4A4A4"/>
<path d="M23.9999 18C23.9999 20.4 25.9999 21 26.9999 21C29.3999 21 29.9999 19 29.9999 18C29.9999 15.6 27.9999 15 26.9999 15C24.5999 15 23.9999 17 23.9999 18Z" fill="#A4A4A4"/>
<path d="M14.9999 18C14.9999 15.6 16.9999 15 17.9999 15C20.3999 15 20.9999 17 20.9999 18C20.9999 20.4 18.9999 21 17.9999 21C15.5999 21 14.9999 19 14.9999 18Z" fill="#A4A4A4"/>
</svg>
