<svg width="36" height="36" viewBox="0 0 36 36" fill="none" xmlns="http://www.w3.org/2000/svg">
<path fill-rule="evenodd" clip-rule="evenodd" d="M18.0001 36C27.9412 36 36.0001 27.9411 36.0001 18C36.0001 8.05887 27.9412 0 18.0001 0C8.05896 0 8.97111e-05 8.05887 8.97111e-05 18C8.97111e-05 27.9411 8.05896 36 18.0001 36ZM18.0001 33C26.2844 33 33.0001 26.2843 33.0001 18C33.0001 9.71573 26.2844 3 18.0001 3C9.71582 3 3.00009 9.71573 3.00009 18C3.00009 26.2843 9.71582 33 18.0001 33Z" fill="#FF4747"/>
<path d="M15.9673 10V19C15.9673 20.6 17.3225 21 18.0001 21C19.5738 21 19.9673 19.6667 19.9673 19V10C19.9673 8.4 18.6558 8 18.0001 8C16.3738 8 15.9673 9.33333 15.9673 10Z" fill="#FF4747"/>
<path d="M17.9673 24C16.3673 24 15.9673 25.3333 15.9673 26C15.9673 27.6 17.3006 28 17.9673 28C19.5673 28 19.9673 26.6667 19.9673 26C19.9673 24.4 18.634 24 17.9673 24Z" fill="#FF4747"/>
</svg>
