<svg width="36" height="36" viewBox="0 0 36 36" fill="none" xmlns="http://www.w3.org/2000/svg">
<path fill-rule="evenodd" clip-rule="evenodd" d="M18 36C27.9411 36 36 27.9411 36 18C36 8.05887 27.9411 0 18 0C8.05887 0 0 8.05887 0 18C0 27.9411 8.05887 36 18 36ZM18 33C26.2843 33 33 26.2843 33 18C33 9.71573 26.2843 3 18 3C9.71573 3 3 9.71573 3 18C3 26.2843 9.71573 33 18 33Z" fill="#47FF5A"/>
<path d="M24.3846 12.0711C24.856 11.5997 26.0817 10.9397 27.2131 12.0711C27.6845 12.5425 28.3444 13.7681 27.2131 14.8995L15.8994 26.2132C15.428 26.6846 14.2023 27.3446 13.0709 26.2132L7.41408 20.5563C6.94267 20.0849 6.28271 18.8593 7.41408 17.7279C7.88548 17.2565 9.11113 16.5966 10.2425 17.7279L14.4851 21.9706L24.3846 12.0711Z" fill="#47FF5A"/>
</svg>
